<?xml version="1.0" encoding="UTF-8" standalone="no"?>
<!-- Creator: CorelDRAW X5 -->

<svg
   xml:space="preserve"
   width="252.3046mm"
   height="114.60001mm"
   style="clip-rule:evenodd;fill-rule:evenodd;image-rendering:optimizeQuality;shape-rendering:geometricPrecision;text-rendering:geometricPrecision"
   viewBox="0 0 25230.46 11460.001"
   version="1.1"
   id="svg6658"
   sodipodi:docname="Retina_de.svg"
   inkscape:version="1.2.1 (9c6d41e410, 2022-07-14, custom)"
   xmlns:inkscape="http://www.inkscape.org/namespaces/inkscape"
   xmlns:sodipodi="http://sodipodi.sourceforge.net/DTD/sodipodi-0.dtd"
   xmlns:xlink="http://www.w3.org/1999/xlink"
   xmlns="http://www.w3.org/2000/svg"
   xmlns:svg="http://www.w3.org/2000/svg"
   xmlns:rdf="http://www.w3.org/1999/02/22-rdf-syntax-ns#"
   xmlns:cc="http://creativecommons.org/ns#"
   xmlns:dc="http://purl.org/dc/elements/1.1/"><metadata
   id="metadata6662"><rdf:RDF><cc:Work
       rdf:about=""><dc:format>image/svg+xml</dc:format><dc:type
         rdf:resource="http://purl.org/dc/dcmitype/StillImage" /><dc:title /></cc:Work></rdf:RDF></metadata><sodipodi:namedview
   pagecolor="#ffffff"
   bordercolor="#666666"
   borderopacity="1"
   objecttolerance="10"
   gridtolerance="10"
   guidetolerance="10"
   inkscape:pageopacity="0"
   inkscape:pageshadow="2"
   inkscape:window-width="1920"
   inkscape:window-height="1131"
   id="namedview6660"
   showgrid="false"
   inkscape:zoom="1.2177976"
   inkscape:cx="534.16101"
   inkscape:cy="272.21272"
   inkscape:window-x="0"
   inkscape:window-y="32"
   inkscape:window-maximized="1"
   inkscape:current-layer="svg6658"
   fit-margin-top="0"
   fit-margin-left="0"
   fit-margin-right="0"
   fit-margin-bottom="0"
   inkscape:showpageshadow="2"
   inkscape:pagecheckerboard="0"
   inkscape:deskcolor="#d1d1d1"
   inkscape:document-units="mm" />
 <defs
   id="defs5711"><linearGradient
   y2="8522.1396"
   x2="12434.2"
   y1="8522.1396"
   x1="11975.6"
   gradientUnits="userSpaceOnUse"
   id="id11">
   <stop
   id="stop7228"
   style="stop-color:#FF6633"
   offset="0" />
   <stop
   id="stop7230"
   style="stop-color:#996633"
   offset="1" />
  </linearGradient>
  <style
   type="text/css"
   id="style5610">
   <![CDATA[
    .str9 {stroke:#009933;stroke-width:7.62}
    .str10 {stroke:#00CCFF;stroke-width:7.62}
    .str8 {stroke:#9900CC;stroke-width:7.62}
    .str7 {stroke:#FF0066;stroke-width:7.62}
    .str6 {stroke:#FF9966;stroke-width:7.62}
    .str5 {stroke:#FFCC00;stroke-width:7.62}
    .str2 {stroke:black;stroke-width:20}
    .str4 {stroke:yellow;stroke-width:20}
    .str3 {stroke:black;stroke-width:25}
    .str1 {stroke:black;stroke-width:20;stroke-dasharray:20.000000 20.000000}
    .str0 {stroke:black;stroke-width:25;stroke-dasharray:25.000000 75.000000}
    .fil15 {fill:none}
    .fil20 {fill:none;fill-rule:nonzero}
    .fil13 {fill:#C5D6D0}
    .fil11 {fill:#D2D9D8}
    .fil9 {fill:#FF9933}
    .fil6 {fill:white}
    .fil19 {fill:black;fill-rule:nonzero}
    .fil21 {fill:red;fill-rule:nonzero}
    .fil18 {fill:yellow;fill-rule:nonzero}
    .fil1 {fill:url(#id0)}
    .fil5 {fill:url(#id1)}
    .fil28 {fill:url(#id2)}
    .fil2 {fill:url(#id3)}
    .fil3 {fill:url(#id4)}
    .fil4 {fill:url(#id5)}
    .fil24 {fill:url(#id6)}
    .fil25 {fill:url(#id7)}
    .fil22 {fill:url(#id8)}
    .fil23 {fill:url(#id9)}
    .fil16 {fill:url(#id10)}
    .fil10 {fill:url(#id11)}
    .fil8 {fill:url(#id12)}
    .fil7 {fill:url(#id13)}
    .fil0 {fill:url(#id14)}
    .fil27 {fill:url(#id15)}
    .fil26 {fill:url(#id16)}
    .fil14 {fill:url(#id17)}
    .fil29 {fill:url(#id18)}
    .fil17 {fill:url(#id19)}
    .fil12 {fill:url(#id20)}
   ]]>
  </style>
  <linearGradient
   id="id0"
   gradientUnits="userSpaceOnUse"
   x1="4834.75"
   y1="2619.74"
   x2="11140.3"
   y2="2619.74">
   <stop
   offset="0"
   style="stop-color:#E6E6E6"
   id="stop5612" />
   <stop
   offset="1"
   style="stop-color:white"
   id="stop5614" />
  </linearGradient>
  <linearGradient
   id="id1"
   gradientUnits="userSpaceOnUse"
   x1="4922.9399"
   y1="5777.1099"
   x2="11228.5"
   y2="5777.1099">
   <stop
   offset="0"
   style="stop-color:#FFFF99"
   id="stop5617" />
   <stop
   offset="1"
   style="stop-color:#E6E6E6"
   id="stop5619" />
  </linearGradient>
  <linearGradient
   id="id2"
   gradientUnits="userSpaceOnUse"
   x1="15824.5"
   y1="11274.4"
   x2="24474.199"
   y2="11274.4">
   <stop
   offset="0"
   style="stop-color:#336666"
   id="stop5622" />
   <stop
   offset="1"
   style="stop-color:#66FFCC"
   id="stop5624" />
  </linearGradient>
  <linearGradient
   id="id3"
   gradientUnits="userSpaceOnUse"
   xlink:href="#id0"
   x1="4956.3799"
   y1="4998.9702"
   x2="10749.2"
   y2="4998.9702"
   gradientTransform="translate(-124.04084,-990.5)">
  </linearGradient>
  <linearGradient
   id="id4"
   gradientUnits="userSpaceOnUse"
   xlink:href="#id0"
   x1="4984.0298"
   y1="8226.9102"
   x2="10756.8"
   y2="8226.9102"
   gradientTransform="translate(-124.04084,-990.5)">
  </linearGradient>
  <linearGradient
   id="id5"
   gradientUnits="userSpaceOnUse"
   xlink:href="#id1"
   x1="4984.0298"
   y1="9712.04"
   x2="10756.8"
   y2="9712.04"
   gradientTransform="translate(-124.04084,-990.5)">
  </linearGradient>
  <linearGradient
   id="id6"
   gradientUnits="userSpaceOnUse"
   x1="14246.6"
   y1="7776.9102"
   x2="14617"
   y2="7776.9102"
   gradientTransform="translate(-124.04084,-990.5)">
   <stop
   offset="0"
   style="stop-color:#6600CC"
   id="stop5630" />
   <stop
   offset="1"
   style="stop-color:#FEFEFE"
   id="stop5632" />
  </linearGradient>
  <linearGradient
   id="id7"
   gradientUnits="userSpaceOnUse"
   x1="12906"
   y1="11489.9"
   x2="13311.7"
   y2="11489.9"
   gradientTransform="translate(663.23734,-977.69362)">
   <stop
   offset="0"
   style="stop-color:#6600CC"
   id="stop5635" />
   <stop
   offset="1"
   style="stop-color:#CCCCCC"
   id="stop5637" />
  </linearGradient>
  <linearGradient
   id="id8"
   gradientUnits="userSpaceOnUse"
   x1="10424.4"
   y1="7508.23"
   x2="16642"
   y2="7508.23">
   <stop
   offset="0"
   style="stop-color:#9966CC"
   id="stop5640" />
   <stop
   offset="1"
   style="stop-color:#E6E6E6"
   id="stop5642" />
  </linearGradient>
  <linearGradient
   id="id9"
   gradientUnits="userSpaceOnUse"
   xlink:href="#id8"
   x1="10683"
   y1="11274.4"
   x2="16388.301"
   y2="11274.4"
   gradientTransform="translate(-124.04084,-990.50003)">
  </linearGradient>
  <linearGradient
   id="id10"
   gradientUnits="userSpaceOnUse"
   x1="24045.199"
   y1="7194.1001"
   x2="25067"
   y2="7194.1001"
   gradientTransform="translate(-124.04084,-990.5)">
   <stop
   offset="0"
   style="stop-color:#CCCCCC"
   id="stop5646" />
   <stop
   offset="1"
   style="stop-color:#FEFEFE"
   id="stop5648" />
  </linearGradient>
  <linearGradient
   id="id11-9"
   gradientUnits="userSpaceOnUse"
   x1="11975.6"
   y1="8522.1396"
   x2="12434.2"
   y2="8522.1396">
   <stop
   offset="0"
   style="stop-color:#FF6633"
   id="stop5651" />
   <stop
   offset="1"
   style="stop-color:#996633"
   id="stop5653" />
  </linearGradient>
  <linearGradient
   id="id12"
   gradientUnits="userSpaceOnUse"
   x1="7559.3101"
   y1="11258.4"
   x2="8264.8496"
   y2="11258.4">
   <stop
   offset="0"
   style="stop-color:#FFCC00"
   id="stop5656" />
   <stop
   offset="1"
   style="stop-color:#E6E6E6"
   id="stop5658" />
  </linearGradient>
  <linearGradient
   id="id13"
   gradientUnits="userSpaceOnUse"
   xlink:href="#id12"
   x1="8194.3096"
   y1="7845.2202"
   x2="8935.1299"
   y2="7845.2202"
   gradientTransform="translate(-124.04084,-990.5)">
  </linearGradient>
  <linearGradient
   id="id14"
   gradientUnits="userSpaceOnUse"
   x1="4428.5801"
   y1="6720.4702"
   x2="25341.301"
   y2="6720.4702"
   gradientTransform="translate(10.708712,11567.621)">
   <stop
   offset="0"
   style="stop-color:#2B2A29"
   id="stop5662" />
   <stop
   offset="0.0117647"
   style="stop-color:#626767"
   id="stop5664" />
   <stop
   offset="0.109804"
   style="stop-color:#B5B1B4"
   id="stop5666" />
   <stop
   offset="0.329412"
   style="stop-color:#E5E5E5"
   id="stop5668" />
   <stop
   offset="0.368627"
   style="stop-color:white"
   id="stop5670" />
   <stop
   offset="0.788235"
   style="stop-color:#C8CECB"
   id="stop5672" />
   <stop
   offset="0.980392"
   style="stop-color:#666467"
   id="stop5674" />
   <stop
   offset="0.988235"
   style="stop-color:#9F9A9E"
   id="stop5676" />
   <stop
   offset="1"
   style="stop-color:#2B2A29"
   id="stop5678" />
  </linearGradient>
  <linearGradient
   id="id15"
   gradientUnits="userSpaceOnUse"
   x1="19151.301"
   y1="7893.4102"
   x2="19151.301"
   y2="7575.9102"
   gradientTransform="translate(-124.04084,-990.5)">
   <stop
   offset="0"
   style="stop-color:#2B2A29"
   id="stop5681" />
   <stop
   offset="1"
   style="stop-color:#009933"
   id="stop5683" />
  </linearGradient>
  <linearGradient
   id="id16"
   gradientUnits="userSpaceOnUse"
   x1="20556.4"
   y1="8096.9302"
   x2="20556.4"
   y2="7220.0898"
   gradientTransform="translate(-124.04084,-990.5)">
   <stop
   offset="0"
   style="stop-color:#006633"
   id="stop5686" />
   <stop
   offset="1"
   style="stop-color:lime"
   id="stop5688" />
  </linearGradient>
  <linearGradient
   id="id17"
   gradientUnits="userSpaceOnUse"
   x1="14620"
   y1="5857.27"
   x2="14232.1"
   y2="5469.29"
   gradientTransform="translate(-124.04084,-990.5)">
   <stop
   offset="0"
   style="stop-color:red"
   id="stop5691" />
   <stop
   offset="1"
   style="stop-color:#663333"
   id="stop5693" />
  </linearGradient>
  <linearGradient
   id="id18"
   gradientUnits="userSpaceOnUse"
   x1="18355.6"
   y1="11363.4"
   x2="18006.699"
   y2="11014.5">
   <stop
   offset="0"
   style="stop-color:#1A1A1A"
   id="stop5696" />
   <stop
   offset="1"
   style="stop-color:#3F7D7A"
   id="stop5698" />
  </linearGradient>
  <linearGradient
   id="id19"
   gradientUnits="userSpaceOnUse"
   x1="25289.801"
   y1="9710.4805"
   x2="23847"
   y2="8267.7598"
   gradientTransform="translate(-124.04084,-990.5)">
   <stop
   offset="0"
   style="stop-color:#B3B3B3"
   id="stop5701" />
   <stop
   offset="1"
   style="stop-color:white"
   id="stop5703" />
  </linearGradient>
  <linearGradient
   id="id20"
   gradientUnits="userSpaceOnUse"
   x1="17698.6"
   y1="9874.2695"
   x2="12739.1"
   y2="4914.77"
   gradientTransform="translate(-124.04084,-884.66666)">
   <stop
   offset="0"
   style="stop-color:#FF6600"
   id="stop5706" />
   <stop
   offset="1"
   style="stop-color:#FF99CC"
   id="stop5708" />
  </linearGradient>
 
  
  
  
  
  
  
  
  
  
  
  
  
  
  
  
  
  
  
  
  
  
  
  
  
  
  
  
  
  
  
  
  
  
  
  
  
  
  
  
  
  
  
  
  
  
  
  
  
  
  
  
  
  
  
  
  
  
  
  
  
  
  
  
  
  
  
  
  
  
  
  
  
  
  
  
  
  
  
  
  
  
  
  
  
  
  
  
  
  
  
  
  
  
  
  
  
  
  
  
  
  
  
  
  
  
  
  
  
  
  
  
  
  
  
  
  
  
  
  
  
  
  
  
  
  
  
  
  
  
  
  
  
  
  
  
  
  
  
  
  
  
  
  
  
  
  
  
  
  
  
  
  
  
  
  
  
  
  
  
  
  
  
  
  
  
  
  
  
  
  
  
  
  
  
  
  
  
  
  
  
  
  
  
  
  
  
  
  
  
  
  
  
  
  
  
  
  
  
  
  
  
  
  
  
  
  
  
  
  
  
  
  
  
  
  
  
  
  
  
  
  
  
  
  
  
  
  
  
  
  
  
  
  
  
  
  
  
  
  
  
  
  
  
  
  
  
  
  
  
  
  
  
  
  
  
  
 <linearGradient
   inkscape:collect="always"
   xlink:href="#id0"
   id="linearGradient7072"
   gradientUnits="userSpaceOnUse"
   x1="4834.75"
   y1="2619.74"
   x2="11140.3"
   y2="2619.74"
   gradientTransform="translate(-124.04084,-990.5)" /><linearGradient
   inkscape:collect="always"
   xlink:href="#id1"
   id="linearGradient7074"
   gradientUnits="userSpaceOnUse"
   x1="4922.9399"
   y1="5777.1099"
   x2="11228.5"
   y2="5777.1099"
   gradientTransform="translate(-124.04084,-990.5)" /><linearGradient
   inkscape:collect="always"
   xlink:href="#id12"
   id="linearGradient7076"
   gradientUnits="userSpaceOnUse"
   x1="7559.3101"
   y1="11258.4"
   x2="8264.8496"
   y2="11258.4"
   gradientTransform="translate(-124.04084,-990.5)" /><linearGradient
   inkscape:collect="always"
   xlink:href="#id8"
   id="linearGradient7078"
   gradientUnits="userSpaceOnUse"
   x1="10424.4"
   y1="7508.23"
   x2="16642"
   y2="7508.23"
   gradientTransform="translate(-124.04084,-990.5)" /><linearGradient
   inkscape:collect="always"
   xlink:href="#id2"
   id="linearGradient7087"
   gradientUnits="userSpaceOnUse"
   x1="11975.6"
   y1="8522.1396"
   x2="12434.2"
   y2="8522.1396"
   gradientTransform="translate(109.39177,-3430.9319)" /><linearGradient
   inkscape:collect="always"
   xlink:href="#id11-9"
   id="linearGradient7089"
   gradientUnits="userSpaceOnUse"
   x1="11975.6"
   y1="8522.1396"
   x2="12434.2"
   y2="8522.1396"
   gradientTransform="translate(510.95918,-990.5)" />
  
  
  
  
  
  
  
  
  
  
  
  
  
  
  
  
  
  
  
  
  
  
  
  
  
  
  
  
  
  
  
  
  
  
  
  
  
  
  
  
  
  
  
  
  
  
  
  
 
  
  
  
  
  
  
  
  
  
  
  
  
  
  
 <linearGradient
   inkscape:collect="always"
   xlink:href="#id2"
   id="linearGradient7243"
   gradientUnits="userSpaceOnUse"
   gradientTransform="translate(109.39177,-3430.9319)"
   x1="11975.6"
   y1="8522.1396"
   x2="12434.2"
   y2="8522.1396" /><linearGradient
   inkscape:collect="always"
   xlink:href="#id16"
   id="linearGradient670"
   gradientUnits="userSpaceOnUse"
   gradientTransform="translate(-124.04084,-990.5)"
   x1="20556.4"
   y1="8096.9302"
   x2="20556.4"
   y2="7220.0898" /><linearGradient
   inkscape:collect="always"
   xlink:href="#id15"
   id="linearGradient672"
   gradientUnits="userSpaceOnUse"
   gradientTransform="translate(-124.04084,-990.5)"
   x1="19151.301"
   y1="7893.4102"
   x2="19151.301"
   y2="7575.9102" /></defs>
 
 <path
   style="fill:#ffff00;fill-rule:nonzero;stroke:#000000;stroke-width:25"
   inkscape:connector-curvature="0"
   id="path5774"
   d="m 1351.9592,3996.5 h 995 v 127 l 995,-254 -995,-254 v 127 h -995 z m 497,0 m 497,64 m 497,-64 m 0,-254 m -497,-64 m -497,64 m -497,127"
   class="fil18 str3" /><path
   style="fill:#ffff00;fill-rule:nonzero;stroke:#000000;stroke-width:25"
   inkscape:connector-curvature="0"
   id="path5776"
   d="m 1298.9592,8230.5 h 995 v 127 l 995,-254 -995,-254 v 127 h -995 z m 497,0 m 497,64 m 497,-64 m 0,-254 m -497,-64 m -497,64 m -497,127"
   class="fil18 str3" />
 <path
   style="fill:#a76d60;stroke:#fad12a;stroke-width:99.99999964;stroke-dasharray:399.99999857, 99.99999964;stroke-dashoffset:0;stroke-opacity:1"
   d="m 7213.487,3037.1673 2.4637,3613.774"
   id="path1396"
   sodipodi:nodetypes="cc" /><path
   id="path5716"
   d="m 4930.9592,2166.5 c 20,261 10,755 19,1046 10,291 39,379 474,418 435,38 1276,26 1755,-56 479,-82 597,-235 756,-323 159,-88 359,-112 550,-88 191,24 373,94 532,176 159,82 294,176 435,209 141,32 288,3 406,-53 118,-56 205.9998,-138 264.9998,-197 59,-59 88,-94 100,-71 12,24 6,106 -32,173 -38,68 -109,121 -173,159 -64.9998,38 -122.9998,62 -128.9998,88 -6,26 41,56 114.9998,91 73,35 173,76 253,115 79,38 138,74 262,103 123,29 312,53 412,74 100,21 112,38 53,50 -59,12 -188,18 -294,24 -106,6 -188,12 -273,-6 -85,-18 -173,-59 -247,-103 -73,-44 -132,-91 -156,-79 -23.9998,12 -12,82 -3,153 9,71 15,141 73,215 59,73 171,150 226,206 56,56 56,91 6,82 -50,-9 -150,-62 -226,-115 -76,-53 -128.9998,-106 -164.9998,-191 -35,-85 -53,-203 -85,-291 -32,-88 -79,-147 -138,-179 -59,-32 -129,-38 -229,-12 -100,26 -229,85 -365,165 -135,79 -276,179 -435,232 -159,53 -335,59 -494,29 -159,-29 -300,-94 -403,-162 -103,-68 -168,-138 -300,-182 -132,-44 -332,-62 -764,-68 -432,-6 -1097,0 -1458,-24 -362,-24 -420,-76 -443,-402 -23,-326 -9,-924 23,-1210 32,-285 81,-257 101,4 z"
   class="fil1 str1"
   inkscape:connector-curvature="0"
   style="fill:url(#linearGradient7072);stroke:#000000;stroke-width:20;stroke-dasharray:20, 20" /><path
   id="path5718"
   d="m 4849.9592,2195.5 c 23,-424 72,-290 90,-214 18,76 4,94 -4,242 -7,148 -7,427 4,933 11,506 32,1238 63,1623 31,385 72,422 401,457 329,34 945,65 1303,25 358,-40 458,-152 602,-221 144,-68 332,-93 511,-81 179,12 349,62 502,143 153,81 288,193 528,270 241,78 587,121 828,118 241,-3 375.9998,-53 495.9998,-143 120,-90 226,-221 291,-323 65,-103 88,-177 112,-208 23,-31 47,-19 38,44 -9,62 -50,174 -112,277 -62,103 -144,196 -211,264 -67,68 -120,112 -132,146 -12,34 18,59 56,87 38,28 85,59 103,93 18,34 6,72 -41,75 -47,3 -129,-28 -161,-22 -32,6 -15,50 12,96 26,47 62,96 62,127 0,31 -35,44 -82,16 -47,-28 -106,-96 -149.9998,-155 -44,-59 -73,-109 -214,-137 -141,-28 -393,-34 -584,-40 -191,-6 -320,-12 -452,37 -132,50 -267,155 -434,221 -167,65 -367,90 -549,72 -182,-19 -346,-81 -467,-162 -120,-81 -197,-180 -279,-239 -82,-59 -170,-78 -478,-99 -308,-22 -836,-47 -1133,-81 -296,-34 -361,-78 -405,-124 -44,-47 -68,-96 -85,-218 -18,-121 -29,-314 -37,-902 -8,-588 -11,-1571 11,-1995 z"
   class="fil2 str1"
   inkscape:connector-curvature="0"
   style="fill:url(#id3);stroke:#000000;stroke-width:20;stroke-dasharray:20, 20" /><path
   id="path5720"
   d="m 4889.9592,5549.5 c 26,-423 73,-348 106,-305 32,44 50,56 56,196 6,140 0,407 -9,914 -9,507 -21,1253 -6,1645 15,392 56,429 384,463 329,34 945,65 1303,25 358,-40 458,-152 602,-221 144,-68 332,-93 511,-81 179,12 349,62 502,143 153,81 288,193 528,270 241,78 587,121 828,118 241,-3 375.9998,-53 495.9998,-143 120,-90 226,-221 291,-323 65,-103 88,-177 112,-208 23,-31 47,-19 38,44 -9,62 -50,174 -112,277 -62,103 -144,196 -211,264 -67,68 -120,112 -132,146 -12,34 18,59 56,87 38,28 85,59 103,93 18,34 6,72 -41,75 -47,3 -129,-28 -161,-22 -32,6 -15,50 12,96 26,47 62,96 62,127 0,31 -35,44 -82,16 -47,-28 -106,-96 -149.9998,-155 -44,-59 -73,-109 -214,-137 -141,-28 -393,-34 -584,-40 -191,-6 -320,-12 -452,37 -132,50 -267,155 -434,221 -167,65 -367,90 -549,72 -182,-19 -346,-81 -467,-162 -120,-81 -197,-180 -279,-239 -82,-59 -170,-78 -478,-99 -308,-22 -836,-47 -1133,-81 -296,-34 -361,-78 -405,-124 -44,-47 -68,-96 -85,-218 -18,-121 -29,-314 -32,-870 -3,-556 3,-1477 29,-1899 z"
   class="fil3 str1"
   inkscape:connector-curvature="0"
   style="fill:url(#id4);stroke:#000000;stroke-width:20;stroke-dasharray:20, 20" /><path
   id="path5724"
   d="m 4915.9592,2483.5 c 44,832 74,2461 103,3319 29,858 59,947 494,985 435,38 1276,26 1755,-56 479,-82 597,-235 756,-323 159,-88 359,-112 550,-88 191,24 373,94 532,176 159,82 294,176 435,209 141,32 288,3 406,-53 117.9998,-56 205.9998,-138 264.9998,-197 59,-59 88,-94 100,-71 12,24 6,106 -32,173 -38,68 -109,121 -173,159 -65,38 -122.9998,62 -128.9998,88 -6,26 40.9998,56 114.9998,91 73,35 173,76 253,115 79,38 138,74 262,103 123,29 312,53 412,74 100,21 112,38 53,50 -59,12 -188,18 -294,24 -106,6 -188,12 -273,-6 -85,-18 -173,-59 -247,-103 -73,-44 -132,-91 -156,-79 -24,12 -12,82 -3,153 9,71 15,141 73,215 59,73 171,150 226,206 56,56 56,91 6,82 -50,-9 -150,-62 -226,-115 -76,-53 -129,-106 -165,-191 -34.9998,-85 -52.9998,-203 -84.9998,-291 -32,-88 -79,-147 -138,-179 -59,-32 -129,-38 -229,-12 -100,26 -229,85 -365,165 -135,79 -276,179 -435,232 -159,53 -335,59 -494,29 -159,-29 -300,-94 -403,-162 -103,-68 -168,-138 -300,-182 -132,-44 -332,-62 -764,-68 -432,-6 -1097,0 -1458,-24 -362,-24 -420,-76 -467,-973 -47,-897 -82,-2637 -71,-3490 12,-853 71,-817 115,15 z"
   class="fil5 str2"
   inkscape:connector-curvature="0"
   style="fill:url(#linearGradient7074);stroke:#000000;stroke-width:20" /><ellipse
   id="ellipse5726"
   ry="185"
   rx="220"
   cy="8739.5"
   cx="7811.959"
   class="fil6 str2"
   style="fill:#ffffff;stroke:#000000;stroke-width:20" /><ellipse
   id="ellipse5728"
   ry="185"
   rx="220"
   cy="5511.5"
   cx="7776.959"
   class="fil6 str2"
   style="fill:#ffffff;stroke:#000000;stroke-width:20" /><ellipse
   id="ellipse5730"
   ry="185"
   rx="247"
   cy="3695.5"
   cx="8385.959"
   class="fil6 str2"
   style="fill:#ffffff;stroke:#000000;stroke-width:20" /><ellipse
   id="ellipse5732"
   ry="265"
   rx="370"
   cy="6854.5"
   cx="8440.959"
   class="fil7 str2"
   style="fill:url(#id13);stroke:#000000;stroke-width:20" /><path
   id="path5736"
   d="m 12189.963,7270.5 c 73,-29 132,-100 250,-156 118,-56 294,-97 435,-71 141,26 247,121 315,223 68,103 97,215 82,323 -15,109 -74,215 -209,276 -135,62 -347,79 -485,68 -138,-12 -203,-53 -262,-106 -59,-53 -112,-118 -182,-168 -71,-50 -159,-85 -235,-71 -76,15 -141,79 -173,182 -32,103 -32,244 -32,417 0,173 0,379 -15,611 -15,232 -14.386,618.0161 -85,691 -205.108,211.9921 -445.503,306.0666 -611.216,390.2101 -151.405,76.8787 -484.971,291.7529 -535.509,194.6939 -42.396,-81.424 112.972,-288.5274 126.371,-199.3172 41.434,275.8692 691.579,-307.351 862.437,-465.0594 47.309,-43.6677 41.453,-43.2444 82.453,-123.2444 41,-79 22.464,-185.283 42.464,-320.283 21,-135 32,-288 44,-423 12,-135 24,-253 -18,-288 -41,-35 -135,12 -203,41 -68,29 -109,41 -173,94 -65,53 -153,147 -197,173 -44,26 -44,-15 -24,-59 21,-44 -136.993,-109.4002 -80.993,-156.4002 56,-47 324.993,-75.5998 398.993,-119.5998 73,-44 150,-85 203,-115 53,-29 82,-47 94,-91 12,-44 6,-115 0,-159 -6,-44 -12,-62 -50,-53 -38,9 -109,44 -179,38 -71,-6 -141,-53 -182,-88 -41,-35 3.81,-180.7984 21.617,-210.9303 25.421,-43.0178 7.846,-67.3772 83.846,-82.3772 76,-15 217.537,175.3075 279.537,117.3075 62,-59 115,-123 165,-150 50,-26 97,-15 103,-68 6,-53 28.917,-55.1268 -18.083,-119.1268 -47,-65 -41.704,96.1796 -207.869,-53.094 -52.698,-73.1522 -52,-145.1978 4.003,-157.1978 56,-12 107.971,89.7621 137.971,63.7621 29,-26 -21.022,-193.3435 -83.022,-226.3435 -62,-32 -864.57,107.9598 -946.57,60.9598 -82,-47 188.082,-145.2112 221.258,-146.638 -30.291,110.2478 296.087,39.2413 385.292,20.2035 124.766,-26.6271 225.02,-42.5253 272.02,-89.5253 47,-47 29,-171 3,-303 -26,-132 -62,-273 -103,-409 -41,-135 -88,-265 -203,-318 -115,-53 64.577,160.0948 -3.423,154.0948 -68,-6 -205.311,-115.5884 -131.806,-206.9717 86.223,-104.1768 67.229,-94.1231 173.229,-53.1231 106,41 182,141 232,229 50,88 74,165 85,212 12,47 12,65 9,18 -3,-47 232,1075 293,1157 62,82 150,94 223,65 z"
   class="fil9 str2"
   inkscape:connector-curvature="0"
   style="fill:#ff9933;stroke:#000000;stroke-width:20"
   sodipodi:nodetypes="cssccccsccssssssssccscscscsccssscsssccsccsccscssscsscsscsccc" /><ellipse
   id="ellipse5738"
   ry="185"
   rx="229"
   cy="7531.5"
   cx="12715.963"
   class="fil10 str2"
   style="fill:url(#linearGradient7089);stroke:#000000;stroke-width:20" /><path
   style="fill:#d2d9d8;stroke:#000000;stroke-width:25"
   inkscape:connector-curvature="0"
   id="path5742"
   d="m 4787.9592,9619.5 c 53,-480 39,-1455 25,-2350 -14,-895 -28,-1710 -42,-2453 -14,-742 -28,-1412 -35,-1900 -7,-488 -7,-793 -28,-954 -21,-160 -64,-175 -92,-175 -28,0 -42,15 -56,80 -14,66 -28,182 -28,1128 0,946 14,2722 21,3843 7,1121 7,1587 -4,2016 -11,429 -32,823 18,1026 49,204 169,218 222,-263 z"
   class="fil11 str3" /><path
   inkscape:connector-curvature="0"
   style="fill:url(#id20);stroke:#000000;stroke-width:25"
   id="path5744"
   d="m 15460.959,4458.3334 c -34,-6 -101,6 -173,13 -72,6 -149,6 -194,-46 -45,-53 -58,-159 -47,-228 11,-69 47,-101 111,-143 64,-42 157,-93 244,-125 87,-32 167,-45 223,-21 56,24 88,85 109,128 21,43 30,69 50,75 19,6 48,-6 48,-42 0,-35 -29,-93 -64,-138 -35,-45 -77,-77 -138,-93 -61,-16 -141,-16 -244,13 -103,29 -228,87 -297,120 -69,34 -82,43 -93,27 -11,-16 -21,-58 -37,-138 -16,-80 -38,-199 -47,-319 -8,-120 -2,-242 81,-385 83,-143 242,-308 273,-373 30,-65 -68,-29 -155,51 -86,81 -160,207 -203,321 -43,114 -56,217 -53,358 3,141 22,321 40,470 18,149 34,268 37,362 3,95 -6,165 -32,205 -26,40 -67,50 -111,27 -43,-22 -88,-77 -146,-140 -58,-63 -128,-133 -210,-172 -82,-38 -175,-45 -284,-16 -109,29 -234,93 -318,199 -83,106 -125,253 -104,385 21,131 104,247 205,316 101,69 220,91 326,83 106,-8 199,-47 271,-90 72,-43 123,-91 189,-35 66,56 146,216 207,367 61,151 103,292 135,475 32,183 55,407 79,597 24,189 50,343 104,617 55,274 138,669 224,1031 87,362 176,693 268,970 91,277 184,502 247,638 63,136 95,184 119,203.9996 24,19 40,10 51,-9.9996 11,-19 18,-48 6,-82 -11,-34 -40,-72 -72,-135 -32,-63 -67,-149 -125,-298 -58,-149 -138,-361 -226,-651 -88,-290 -184,-659 -247,-903 -63,-244 -91,-362 -66,-370 26,-8 106,95 223,176 117,82 271,143 380,160 109,18 173,-8 192,-30 19,-22 -6,-42 -71,-61 -64,-19 -167,-38 -268,-74 -101,-35 -200,-87 -285,-168 -85,-82 -156,-194 -202,-284 -47,-90 -69,-157 -106,-383 -37,-226 -88,-611 -109,-791 -21,-180 -11,-154 45,-80 56,74 159,196 321,329 162,133 383,277 531,366 148,88 221,120 277,120 56,0 95,-32 107,-58 13,-26 0,-45 -24,-50 -24,-5 -59,5 -109,-2 -50,-6 -114,-29 -208,-85 -95,-56 -220,-146 -318,-221 -98,-75 -168,-136 -266,-242 -98,-106 -223,-257 -236,-298 -13,-42 87,26 178,66 91,40 175,53 208,40 34,-13 18,-51 -46,-91 -64,-40 -176,-82 -266,-123 -90,-42 -157,-83 -220,-172 -63,-88 -120,-223 -138,-284 -18,-61 5,-48 40,-22 35,26 83,64 148,83 64,19 144,19 236,14 91,-5 194,-14 308,-37 114,-22 239,-58 313,-98 74,-40 96,-85 55,-85 -42,0 -148,45 -263,77 -115,32 -241,51 -350,56 -109,5 -202,-5 -290,-38 -88,-34 -172,-91 -226,-141 -55,-50 -80,-91 -88,-136 -8,-45 2,-93 27,-141 26,-48 67,-96 91,-149 24,-53 30,-111 67,-141 37,-30 104,-34 178,-37 74,-3 154,-6 194,-21 40,-14 40,-40 6,-47 z"
   class="fil12 str3" /><g
   id="g7241"
   transform="translate(46.1843,4491.8691)"><path
     style="opacity:0.597;fill:#2ad4ff;fill-opacity:1;stroke:#000000;stroke-width:26.4583;stroke-linecap:round;stroke-miterlimit:4;stroke-dasharray:none;stroke-dashoffset:0;stroke-opacity:1"
     d="m 4741.7749,4167.2715 c 275.8749,212.2115 1207.4579,304.5193 1823.7,381.9806 965.7423,121.3933 5098.4801,544.1625 5247.3171,462.8759 509.127,-278.0583 435.834,-219.5503 587.18,-208.2221 344.862,25.8128 279.824,142.2925 605.25,252.8144 828.133,281.2521 3232.133,-25.004 3998.42,-83.0452 788.175,-59.6991 2729.726,-271.5645 2729.726,-271.5645 214.223,172.9846 -1140.386,233.7835 -1055.128,235.1373 1221.883,19.4027 1312.225,130.7819 662.666,104.2799 -82.392,-3.3616 -597.834,41.3194 -518.584,46.9976 291.972,20.9195 1010.858,169.386 1010.858,169.386 0,0 -1817.518,-43.8029 -2543.053,-50.7012 -851.619,-8.0971 -4193.171,14.5103 -4648.901,78.233 -144.85,20.2538 -189.619,88.996 -458.394,86.2309 -151.299,-1.5565 -265.62,-218.5763 -372.354,-221.8119 -1064.62,-32.2736 -4001.0684,-326.9538 -4873.6331,-314.022 -738.0452,10.9381 -1940.4162,143.2427 -2195.07,291.7907 z"
     id="path7237"
     inkscape:connector-curvature="0"
     sodipodi:nodetypes="cssssscssscssssscc" /><ellipse
     style="fill:url(#linearGradient7243);fill-opacity:1;stroke:#000000;stroke-width:20"
     class="fil10 str2"
     cx="12314.392"
     cy="5091.0684"
     rx="229"
     ry="185"
     id="ellipse7239" /></g><path
   style="fill:#c5d6d0;stroke:#000000;stroke-width:25"
   inkscape:connector-curvature="0"
   id="path5746"
   d="m 18826.315,4207.6113 c -123,10 -288,15 -388,17 -100,2 -135,1 -161,-14 -26,-15 -42,-44 -103,-86 -61,-43 -167,-99 -287,-127 -121,-28 -256,-27 -365,-5 -109,23 -192,68 -257,108 -64,40 -110,74 -162,96 -52,22 -110,30 -282,37 -172,7 -457,12 -635,13 -178,1 -249,-1 -291,-18 -42,-17 -55,-49 -71,-101 -16,-52 -34,-125 -51,-148 -17,-23 -34,5 -32,37 2,32 21,70 29,105 8,35 3,68 -9,83 -13,15 -33,13 -59,-2 -26,-15 -57,-43 -76,-43 -19,-1 -27,26 -4,47 23,21 77,36 112,56 35,20 51,46 35,62 -15,15 -62,21 -108,14 -46,-7 -91,-25 -124,-38 -33,-13 -54,-21 -60,-3 -6,18 2,62 -8,99 -10,37 -38,68 -71,90 -33,22 -70,36 -66,40 5,4 51,-1 95,-15 43,-14 84,-36 128,-53 45,-17 94,-28 147,-29 53,-1 109,8 125,38 16,30 -8,81 -40,115 -32,34 -73,51 -65,56 8,6 63,0 103,8 40,8 65,31 76,21 11,-9 9,-50 19,-89 10,-39 32,-75 58,-100 27,-25 59,-38 235,-45 176,-7 497,-8 680,0 183,7 228,23 270,46 42,23 82,53 165,91 83,37 208,81 322,95 114,14 216,-3 303,-29 87,-26 159,-62 209,-92 50,-30 78,-55 116,-75 37,-19 84,-33 176,-51 92,-18 229,-39 412,-42 182,-3 410,13 554,45 144,33 206,83 243,121 37,38 50,64 76,76 26,12 64,10 112,5 48,-5 107,-14 673,-24 566,-10 1640,-20 2284,-26 644,-6 859,-7 982,-16 123,-9 155,-25 172,-58 18,-33 21,-83 18,-172 -3,-88 -12,-214 -32,-291 -20,-77 -51,-105 -87,-125 -36,-20 -78,-33 -133,-35 -55,-2 -122,7 -719,18 -597,11 -1724,24 -2321,29 -597,5 -665,3 -719,15 -54,13 -94,41 -120,75 -26,34 -39,73 -71,90 -32,18 -82,14 -196,21 -114,7 -293,24 -423,41 -130,17 -212,32 -335,43 z"
   class="fil13 str3" /><ellipse
   style="fill:url(#id17);stroke:#000000;stroke-width:25"
   id="ellipse5748"
   ry="180"
   rx="233"
   cy="4672.5"
   cx="14301.959"
   class="fil14 str3" /><ellipse
   style="fill:none;stroke:#000000;stroke-width:25"
   id="ellipse5750"
   ry="159"
   rx="212"
   cy="4397.5"
   cx="17751.959"
   class="fil15 str3" /><path
   style="fill:#c5d6d0;stroke:#000000;stroke-width:25"
   inkscape:connector-curvature="0"
   id="path5752"
   d="m 19399.959,7843.5 c -123,10 -288,15 -388,17 -100,2 -135,1 -161,-14 -26,-15 -42,-44 -103,-86 -61,-43 -167,-99 -287,-127 -121,-28 -256,-27 -365,-5 -109,23 -192,68 -257,108 -64,40 -110,74 -162,96 -52,22 -110,30 -282,37 -172,7 -457,12 -635,13 -178,1 -249,-1 -291,-18 -42,-17 -55,-49 -71,-101 -16,-52 -34,-125 -51,-148 -17,-23 -34,5 -32,37 2,32 21,70 29,105 8,35 3,68 -9,83 -13,15 -33,13 -59,-2 -26,-15 -57,-43 -76,-43 -19,-1 -27,26 -4,47 23,21 77,36 112,56 35,20 51,46 35,62 -15,15 -62,21 -108,14 -46,-7 -91,-25 -124,-38 -33,-13 -54,-21 -60,-3 -6,18 2,62 -8,99 -10,37 -38,68 -71,90 -33,22 -70,36 -66,40 5,4 51,-1 95,-15 43,-14 84,-36 128,-53 45,-17 94,-28 147,-29 53,-1 109,8 125,38 16,30 -8,81 -40,115 -32,34 -73,51 -65,56 8,6 63,0 103,8 40,8 65,31 76,21 11,-9 9,-50 19,-89 10,-39 32,-75 58,-100 27,-25 59,-38 235,-45 176,-7 497,-8 680,0 183,7 228,23 270,46 42,23 82,53 165,91 83,37 208,81 322,95 114,14 216,-3 303,-29 87,-26 159,-62 209,-92 50,-30 78,-55 116,-75 37,-19 84,-33 176,-51 92,-18 229,-39 412,-42 182,-3 410,13 554,45 144,33 206,83 243,121 37,38 50,64 76,76 26,12 64,10 112,5 48,-5 107,-14 673,-24 566,-10 1640,-20 2284,-26 644,-6 859,-7 982,-16 123,-9 155,-25 172,-58 18,-33 21,-83 18,-172 -3,-88 -12,-214 -32,-291 -20,-77 -51,-105 -87,-125 -36,-20 -78,-33 -133,-35 -55,-2 -122,7 -719,18 -597,11 -1724,24 -2321,29 -597,5 -665,3 -719,15 -54,13 -94,41 -120,75 -26,34 -39,73 -71,90 -32,18 -82,14 -196,21 -114,7 -293,24 -423,41 -130,17 -212,32 -335,43 z"
   class="fil13 str3" /><path
   style="fill:#c5d6d0;stroke:#000000;stroke-width:25"
   inkscape:connector-curvature="0"
   id="path5754"
   d="m 19230.959,5557.5 c -123,10 -288,15 -388,17 -100,2 -135,1 -161,-14 -26,-15 -42,-44 -103,-86 -61,-43 -167,-99 -287,-127 -121,-28 -256,-27 -365,-5 -109,23 -192,68 -257,108 -64,40 -110,74 -162,96 -52,22 -110,30 -282,37 -172,7 -457,12 -635,13 -178,1 -249,-1 -291,-18 -42,-17 -55,-49 -71,-101 -16,-52 -34,-125 -51,-148 -17,-23 -34,5 -32,37 2,32 21,70 29,105 8,35 3,68 -9,83 -13,15 -33,13 -59,-2 -26,-15 -57,-43 -76,-43 -19,-1 -27,26 -4,47 23,21 77,36 112,56 35,20 51,46 35,62 -15,15 -62,21 -108,14 -46,-7 -91,-25 -124,-38 -33,-13 -54,-21 -60,-3 -6,18 2,62 -8,99 -10,37 -38,68 -71,90 -33,22 -70,36 -66,40 5,4 51,-1 95,-15 43,-14 84,-36 128,-53 45,-17 94,-28 147,-29 53,-1 109,8 125,38 16,30 -8,81 -40,115 -32,34 -73,51 -65,56 8,6 63,0 103,8 40,8 65,31 76,21 11,-9 9,-50 19,-89 10,-39 32,-75 58,-100 27,-25 59,-38 235,-45 176,-7 497,-8 680,0 183,7 228,23 270,46 42,23 82,53 165,91 83,37 208,81 322,95 114,14 216,-3 303,-29 87,-26 159,-62 209,-92 50,-30 78,-55 116,-75 37,-19 84,-33 176,-51 92,-18 229,-39 412,-42 182,-3 410,13 554,45 144,33 206,83 243,121 37,38 50,64 76,76 26,12 64,10 112,5 48,-5 107,-14 673,-24 566,-10 1640,-20 2284,-26 644,-6 859,-7 982,-16 123,-9 155,-25 172,-58 18,-33 21,-83 18,-172 -3,-88 -12,-214 -32,-291 -20,-77 -51,-105 -87,-125 -36,-20 -78,-33 -133,-35 -55,-2 -122,7 -719,18 -597,11 -1724,24 -2321,29 -597,5 -665,3 -719,15 -54,13 -94,41 -120,75 -26,34 -39,73 -71,90 -32,18 -82,14 -196,21 -114,7 -293,24 -423,41 -130,17 -212,32 -335,43 z"
   class="fil13 str3" /><ellipse
   style="fill:none;stroke:#000000;stroke-width:25"
   id="ellipse5756"
   ry="127"
   rx="201"
   cy="5762.5"
   cx="18164.959"
   class="fil15 str3" /><ellipse
   style="fill:none;stroke:#000000;stroke-width:25"
   id="ellipse5758"
   ry="180"
   rx="201"
   cy="8017.5"
   cx="18270.959"
   class="fil15 str3" /><path
   inkscape:connector-curvature="0"
   style="fill:url(#id10);stroke:#000000;stroke-width:25"
   id="path5760"
   d="m 24002.959,6558.5 c 4,-7 47,-12 98,-15 51,-3 111,-3 138,-11 27,-9 22,-26 5,-35 -17,-9 -45,-9 -83,-7 -38,2 -86,5 -129,4 -43,-1 -82,-6 -100,-16 -18,-10 -14,-24 4,-33 18,-9 49,-12 77,-14 27,-2 50,-2 75,-4 25,-2 51,-5 78,-8 26,-3 53,-4 64,-10 11,-5 8,-14 -12,-21 -20,-7 -57,-12 -93,-12 -36,0 -71,5 -100,5 -28,0 -49,-5 -58,-18 -9,-12 -5,-32 11,-40 17,-8 47,-4 77,-4 30,1 60,-1 85,-3 25,-2 44,-4 56,-9 12,-5 18,-14 7,-21 -11,-7 -37,-12 -64,-20 -27,-8 -56,-19 -86,-22 -31,-4 -64,0 -75,-4 -11,-4 2,-14 60,-16 58,-2 162,5 270,5 108,0 219,-7 290,-11 71,-4 103,-6 131,-8 28,-2 53,-4 83,-5 30,-2 65,-4 86,-6 21,-3 28,-6 -111,-8 -139,-2 -425,-2 -585,-3 -160,-1 -193,-3 -220,-7 -26,-4 -46,-11 -37,-19 9,-7 46,-14 82,-19 36,-5 71,-9 102,-11 31,-2 57,-2 78,-3 21,-1 37,-3 38,-11 1,-8 -13,-22 -42,-33 -29,-11 -73,-18 -122,-27 -49,-10 -101,-22 -101,-31 1,-9 56,-14 112,-16 56,-2 115,0 134,-4 19,-4 0,-12 -38,-13 -38,-1 -94,6 -138,-3 -43,-9 -73,-34 -57,-46 16,-12 78,-12 139,-20 62,-8 123,-24 169,-40 46,-16 76,-32 85,-106 9,-74 -4,-206 -21,-302 -18,-95 -41,-153 -25,-182 16,-28 71,-26 138,-25 68,2 149,4 215,4 66,1 117,1 153,-1 36,-2 57,-5 70,303 12,309 16,930 19,1228 3,298 4,273 5,274 1,1 1,27 -11,39 -12,11 -37,8 -71,7 -34,-1 -79,1 -188,-2 -109,-3 -284,-10 -408,-12 -124,-3 -198,-1 -243,-5 -45,-4 -61,-15 -49,-25 11,-10 50,-19 88,-20 38,-2 75,4 110,7 35,4 69,5 84,-1 15,-6 11,-20 -19,-29 -31,-9 -89,-12 -131,-18 -42,-5 -69,-12 -92,-20 -23,-8 -42,-17 -35,-21 7,-4 41,-4 79,-6 38,-2 80,-5 116,-6 35,-1 64,1 84,-2 20,-3 33,-10 15,-18 -18,-8 -65,-17 -109,-22 -44,-5 -85,-7 -116,-11 -32,-4 -55,-9 -67,-15 -12,-6 -14,-13 -4,-24 10,-11 31,-25 66,-32 35,-7 85,-7 142,-9 57,-2 123,-5 169,-8 47,-3 75,-4 100,-10 25,-5 46,-14 72,-26 26,-12 58,-28 68,-42 10,-14 -3,-26 -40,-46 -37,-19 -99,-46 -150,-65 -51,-19 -92,-32 -146,-41 -54,-9 -121,-14 -171,-21 -50,-7 -84,-16 -79,-23 z"
   class="fil16 str3" /><path
   inkscape:connector-curvature="0"
   style="fill:url(#id19);stroke:#000000;stroke-width:25"
   id="path5762"
   d="m 24046.959,7112.5 c -81,9 -95,28 -76,48 19,19 72,39 124,48 52,9 103,7 118,12 15,5 -6,18 -56,19 -50,2 -130,-7 -178,-4 -49,3 -66,17 -63,27 4,11 28,18 65,23 37,5 86,9 123,12 36,4 59,7 84,11 25,4 51,10 65,17 14,7 16,16 -11,19 -27,3 -84,-1 -134,-2 -50,-1 -94,1 -130,9 -35,8 -62,22 -48,32 14,10 69,15 110,19 41,4 70,5 98,7 28,2 56,4 75,11 19,7 27,19 -6,24 -34,4 -109,1 -164,8 -55,7 -88,25 -81,41 7,17 55,33 121,33 66,0 151,-16 218,-15 67,1 116,19 153,48 37,29 62,70 75,127 13,57 15,131 18,215 3,84 6,177 -4,228 -10,50 -33,57 -75,64 -42,6 -104,11 -168,14 -64,3 -131,3 -179,2 -48,-1 -76,-3 -105,0 -29,3 -59,10 -65,22 -6,12 11,30 45,44 34,14 83,25 136,28 53,4 109,0 136,6 26,6 23,22 -11,29 -34,7 -97,5 -144,3 -47,-3 -77,-6 -105,-4 -28,2 -55,9 -58,19 -4,11 16,25 56,34 40,10 100,15 140,19 41,4 62,8 83,10 21,2 42,2 51,8 9,6 5,19 -28,23 -34,4 -97,1 -146,3 -49,2 -82,9 -96,19 -14,11 -9,25 12,28 21,4 58,-4 89,-6 31,-3 56,-1 82,4 26,4 55,11 75,15 20,4 33,4 22,9 -11,5 -44,16 -102,22 -58,6 -141,8 -190,12 -49,4 -63,11 -44,27 19,16 70,41 116,58 47,18 89,28 123,33 34,4 61,3 25,4 -36,2 -135,7 -193,19 -58,11 -76,29 -51,38 25,9 92,9 143,10 51,1 86,3 113,4 26,1 44,1 24,6 -20,5 -79,16 -131,21 -53,5 -101,5 -134,10 -34,4 -53,13 -53,30 0,17 19,41 185,56 166,15 478,20 646,21 168,1 193,-3 201,-12 8,-10 -1,-26 -6,-168 -5,-143 -7,-413 -11,-697 -4,-284 -11,-582 -16,-724 -4,-142 -6,-128 -9,-131 -3,-3 -6,-22 -22,-31 -16,-9 -44,-7 -126,-9 -82,-2 -218,-7 -360,-11 -142,-4 -290,-5 -371,4 z"
   class="fil17 str3" /><path
   id="path6215"
   d="m 14852.959,6621.5 c -110,-38 -196,-100 -285,-144 -90,-44 -184,-71 -281,-84 -97,-13 -197,-13 -285,10 -88,24 -165,71 -219,115 -54,44 -87,85 -148,109 -62,24 -153,29 -415,21 -262,-9 -694,-32 -933,-53 -240,-21 -287,-38 -331,-68 -44,-29 -85,-71 -132,-143 -47,-72 -100,-175 -165,-262 -65,-87 -141,-157 -204,-196 -63,-38 -113,-44 -153,-66 -40,-22 -69,-60 -98,-75 -29,-15 -59,-6 -76,31 -18,37 -24,101 -10,134 13,32 46,32 85,31 40,-1 87,-4 153,15 66,19 151,60 218,112 66,51 113,113 150,181 37,68 63,141 98,204 35,63 79,116 81,132 1,16 -40,-4 -85,-47 -46,-43 -96,-107 -157,-169 -62,-62 -135,-121 -212,-162 -76,-41 -156,-65 -250,-78 -94,-13 -203,-16 -290,3 -87,19 -151,60 -219,97 -68,37 -138,69 -198,75 -60,6 -110,-15 -141,-10 -31,4 -43,34 -47,68 -4,34 -1,72 10,96 12,24 32,32 53,28 21,-4 41,-22 76,-40 35,-18 85,-35 144,-62 59,-26 126,-62 182,-90 56,-28 100,-49 169,-65 69,-16 163,-28 247,-24 84,4 157,25 226,62 69,37 134,90 187,144 53,54 94,110 84,138 -10,28 -72,28 -148,29 -76,1 -168,4 -266,13 -98,9 -204,24 -334,75 -129,51 -282,140 -378,185 -96,46 -134,49 -148,65 -15,16 -6,46 19,69 25,24 66,41 96,40 29,-1 47,-22 63,-47 16,-25 31,-54 66,-84 35,-29 91,-59 162,-94 71,-35 156,-76 245,-98 90,-22 184,-25 269,-26 85,-1 162,-1 229,0 68,1 126,4 132,37 6,32 -41,94 -79,153 -38,59 -68,115 -100,151 -32,37 -108.92,56.613 -137.92,58.613 -29,1 -92.025,5.855 -108.025,11.855 -16,6 -271.383,4.1808 -261.383,31.1808 10,26 97.521,35.0378 128.521,53.0378 31,18 314.547,37.9827 330.547,2.9827 16,-35 95.26,-122.6693 131.26,-172.6693 35,-50 71,-118 110,-165 40,-47 84,-74 270,-82 187,-9 516,0 816,10 300,10 570,22 716,34 146,12 166,24 228,65 62,41 165,112 273,159 109,47 223,71 334,56 110,-15 216,-68 290,-116 74,-49 115,-93 259,-122 144,-29 391,-44 553,-43 162,1 238,19 309,68 71,49 135,128 213,191 78,63 169,110 262,126 93,16 187,1 240,-25 53,-26 65,-65 49,-71 -16,-6 -60,21 -115,32 -54,12 -119,9 -191,-29 -72,-38 -151,-112 -198,-165 -47,-53 -62,-85 -34,-109 28,-24 99,-38 162,-43 63,-4 119,1 144,-16 25,-18 19,-59 -60,-76 -79,-18 -232,-12 -309,-26 -76,-15 -76,-50 -60,-106 16,-56 49,-132 97,-187 49,-54 113,-87 179,-76 66,10 134,63 181,84 47,21 74,9 79,-15 6,-24 -9,-59 -66,-93 -57,-34 -157,-66 -237,-62 -79,4 -138,46 -190,104 -51,59 -96,135 -147,197 -51,62 -110,109 -197,131 -87,22 -201,19 -326,10 -125,-9 -260,-24 -370,-62 z"
   class="fil22 str2"
   inkscape:connector-curvature="0"
   style="fill:url(#linearGradient7078);stroke:#000000;stroke-width:20"
   sodipodi:nodetypes="ccscsccccsscsscccscssccccsssscscsscsssssssscccccscscsccsccscsscccssscccssssssscsssccccsccscsccssscc" /><ellipse
   id="ellipse6219"
   ry="150"
   rx="185"
   cy="6786.5"
   cx="14307.959"
   class="fil24 str2"
   style="fill:url(#id6);stroke:#000000;stroke-width:20" /><g
   id="g535"
   transform="translate(166.90525,-2201.7551)"><path
     id="path6217"
     d="m 14226.1,10433.017 c -117.865,-70.546 -115.053,-108.605 -273.505,-229.011 -35.169,-26.724 -226.833,-54.292 -353.821,-20.911 -129.6,34.069 -226.032,124.059 -327.414,162.494 -101.382,38.435 -784.561,74.466 -947.561,66.466 -163,-7 -201.354,14.429 -326.354,-7.571 -125,-22 -200.894,-54.38 -236.894,-121.38 -35,-66 -150.979,-149.378 -184.785,-51.838 -36.784,106.133 -35.85,77.468 -30.462,117.603 5.249,39.101 21.692,146.961 58.845,102.689 55.465,-66.092 316.323,-19.893 301.663,43.44 -14.324,61.883 -202.078,260.156 -219.357,263.65 -268.282,54.257 -146.764,208.87 -112.604,190.961 120.867,-63.366 352.642,-422.23 471.642,-427.23 207.19,-0.521 432.218,-8.022 616.319,-14.591 85,-3 211.503,9.612 298.503,10.612 87,1 134.619,-29.206 217.619,20.794 82,50 32.901,11.026 121.302,81.13 87.284,69.22 127.514,250.534 404.793,251.798 100,-7 216.267,-38.512 294.961,-67.703 180.008,-59.12 354.832,-130.174 420.738,-143.953 198.33,-41.266 83.889,-30.848 274.328,-36.368 264.063,-7.655 471.903,53.402 631.903,60.402 160,7 231,16 306,3 75,-13 238.399,-12.167 329.399,-37.167 91,-25 74.025,-43.668 218.571,-31.177 128.344,11.091 64.03,-59.656 76.03,-74.656 12,-15 0,-44 -34,-56 -34,-12 -68.791,21.052 -178.791,43.052 -110,22 -296.209,32.948 -386.209,43.948 -90,10 -104,-7 -98,-44 6,-37 32,-93 79,-171 47,-78 115,-178 184,-253 69,-75 140,-125 204,-178 65,-53 79.68,-87.1991 113.254,-105.5764 31.689,-17.3449 34.901,-55.7393 -13.254,-63.4236 -34.882,-5.5662 -123,49 -197,104 -73,56 -144,132 -206,212 -62,79 -115,162 -163,238 -49,76 -93,147 -162,182 -69,35 -163,35 -307,26 -144,-9 -224.313,-8.379 -411.313,-22.379 -187,-13 -87.922,-19.372 -253.922,-26.372 -166,-7 -199.624,-40.732 -199.624,-40.732 z"
     class="fil23 str2"
     inkscape:connector-curvature="0"
     style="fill:url(#id9);stroke:#000000;stroke-width:20"
     sodipodi:nodetypes="csszcscsassssccscscccsssssssscssscsscccsscsc" /><ellipse
     id="ellipse6221"
     ry="159"
     rx="203"
     cy="10512.307"
     cx="13772.237"
     class="fil25 str2"
     style="fill:url(#id7);stroke:#000000;stroke-width:20" /></g><g
   id="g580"><path
     id="path6223"
     d="m 19623.959,6549.5 c -68,-29 -150,-71 -254,-106 -104,-35 -231,-65 -351,-69 -121,-4 -235,16 -335,63 -100,47 -185,121 -244,165 -59,44 -91,59 -351,72 -260,13 -748,25 -1025,25 -276,0 -341,-12 -398,-47 -57,-35 -107,-94 -143,-151 -35,-57 -56,-113 -79,-151 -24,-38 -50,-59 -53,-54 -3,4 18,34 21,57 3,24 -12,41 -35,50 -24,9 -56,9 -57,21 -1,12 28,35 54,60 26,25 50,51 78,90 28,38 60,88 74,121 13,32 7,47 -18,50 -25,3 -69,-6 -109,-13 -40,-7 -75,-13 -97,-4 -22,9 -31,32 -12,47 19,15 66,21 107,25 41,4 76,7 82,35 6,28 -18,81 -40,128 -22,47 -43,88 -35,115 7,26 43,38 65,25 22,-13 31,-51 54,-79 24,-28 62,-46 106,-69 44,-24 94,-53 392,-71 298,-18 845,-24 1130,-13 285,10 309,37 372,66 63,29 166,62 276,90 110,28 228,51 331,46 103,-6 191,-41 268,-88 76,-47 141,-106 204,-147 63,-41 125,-65 191,-69 66,-4 137,10 194,50 57,40 101,104 143,143 41,38 79,50 222,53 143,3 390,-3 697,-16 307,-13 675,-34 904,-51 229,-18 320,-32 717,-51 397,-19 1100,-43 1476,-65 376,-22 426,-43 438,-68 12,-25 -15,-54 -406,-144 -391,-90 -1147,-240 -1545,-315 -398,-75 -440,-75 -822,-70 -382,5 -1105,15 -1461,70 -356,54 -344,153 -375,212 -31,60 -104,80 -168,82 -63,1 -116,-16 -184,-46 z"
     class="fil26 str2"
     inkscape:connector-curvature="0"
     style="fill:url(#id16);stroke:#000000;stroke-width:20" /><line
     id="line6225"
     y2="6852.5"
     x2="20472.959"
     y1="6288.5"
     x1="20445.959"
     class="fil15 str3"
     style="fill:none;stroke:#000000;stroke-width:25" /><line
     id="line6227"
     y2="6856.5"
     x2="20397.959"
     y1="6296.5"
     x1="20375.959"
     class="fil15 str3"
     style="fill:none;stroke:#000000;stroke-width:25" /><line
     id="line6229"
     y2="6865.5"
     x2="20326.959"
     y1="6310.5"
     x1="20282.959"
     class="fil15 str3"
     style="fill:none;stroke:#000000;stroke-width:25" /><line
     id="line6231"
     y2="6843.5"
     x2="20564.959"
     y1="6279.5"
     x1="20551.959"
     class="fil15 str3"
     style="fill:none;stroke:#000000;stroke-width:25" /><line
     id="line6233"
     y2="6839.5"
     x2="20657.959"
     y1="6257.5"
     x1="20661.959"
     class="fil15 str3"
     style="fill:none;stroke:#000000;stroke-width:25" /><line
     id="line6235"
     y2="6839.5"
     x2="20714.959"
     y1="6261.5"
     x1="20723.959"
     class="fil15 str3"
     style="fill:none;stroke:#000000;stroke-width:25" /><line
     id="line6237"
     y2="6826.5"
     x2="20794.959"
     y1="6257.5"
     x1="20811.959"
     class="fil15 str3"
     style="fill:none;stroke:#000000;stroke-width:25" /><line
     id="line6239"
     y2="6826.5"
     x2="20864.959"
     y1="6257.5"
     x1="20881.959"
     class="fil15 str3"
     style="fill:none;stroke:#000000;stroke-width:25" /><line
     id="line6241"
     y2="6826.5"
     x2="20944.959"
     y1="6257.5"
     x1="20961.959"
     class="fil15 str3"
     style="fill:none;stroke:#000000;stroke-width:25" /><line
     id="line6243"
     y2="6826.5"
     x2="21014.959"
     y1="6257.5"
     x1="21031.959"
     class="fil15 str3"
     style="fill:none;stroke:#000000;stroke-width:25" /><line
     id="line6245"
     y2="6826.5"
     x2="21084.959"
     y1="6257.5"
     x1="21101.959"
     class="fil15 str3"
     style="fill:none;stroke:#000000;stroke-width:25" /><line
     id="line6247"
     y2="6826.5"
     x2="21154.959"
     y1="6257.5"
     x1="21171.959"
     class="fil15 str3"
     style="fill:none;stroke:#000000;stroke-width:25" /><line
     id="line6249"
     y2="6816.5"
     x2="21224.959"
     y1="6247.5"
     x1="21241.959"
     class="fil15 str3"
     style="fill:none;stroke:#000000;stroke-width:25" /><line
     id="line6251"
     y2="6806.5"
     x2="21304.959"
     y1="6237.5"
     x1="21321.959"
     class="fil15 str3"
     style="fill:none;stroke:#000000;stroke-width:25" /><line
     id="line6253"
     y2="6806.5"
     x2="21384.959"
     y1="6237.5"
     x1="21401.959"
     class="fil15 str3"
     style="fill:none;stroke:#000000;stroke-width:25" /><line
     id="line6255"
     y2="6806.5"
     x2="21454.959"
     y1="6237.5"
     x1="21471.959"
     class="fil15 str3"
     style="fill:none;stroke:#000000;stroke-width:25" /><line
     id="line6257"
     y2="6795.5"
     x2="21530.959"
     y1="6244.5"
     x1="21539.959"
     class="fil15 str3"
     style="fill:none;stroke:#000000;stroke-width:25" /><line
     id="line6259"
     y2="6812.5"
     x2="21609.959"
     y1="6235.5"
     x1="21618.959"
     class="fil15 str3"
     style="fill:none;stroke:#000000;stroke-width:25" /><line
     id="line6261"
     y2="6812.5"
     x2="21693.959"
     y1="6235.5"
     x1="21702.959"
     class="fil15 str3"
     style="fill:none;stroke:#000000;stroke-width:25" /><line
     id="line6263"
     y2="6782.5"
     x2="21777.959"
     y1="6235.5"
     x1="21777.959"
     class="fil15 str3"
     style="fill:none;stroke:#000000;stroke-width:25" /><line
     id="line6265"
     y2="6777.5"
     x2="21847.959"
     y1="6239.5"
     x1="21856.959"
     class="fil15 str3"
     style="fill:none;stroke:#000000;stroke-width:25" /><line
     id="line6267"
     y2="6786.5"
     x2="21927.959"
     y1="6239.5"
     x1="21931.959"
     class="fil15 str3"
     style="fill:none;stroke:#000000;stroke-width:25" /><line
     id="line6269"
     y2="6737.5"
     x2="23801.959"
     y1="6535.5"
     x1="23805.959"
     class="fil15 str3"
     style="fill:none;stroke:#000000;stroke-width:25" /><line
     id="line6271"
     y2="6790.5"
     x2="22002.959"
     y1="6239.5"
     x1="22006.959"
     class="fil15 str3"
     style="fill:none;stroke:#000000;stroke-width:25" /><line
     id="line6273"
     y2="6804.5"
     x2="22094.959"
     y1="6239.5"
     x1="22099.959"
     class="fil15 str3"
     style="fill:none;stroke:#000000;stroke-width:25" /><line
     id="line6275"
     y2="6768.5"
     x2="22169.959"
     y1="6235.5"
     x1="22178.959"
     class="fil15 str3"
     style="fill:none;stroke:#000000;stroke-width:25" /><line
     id="line6277"
     y2="6773.5"
     x2="22240.959"
     y1="6244.5"
     x1="22253.959"
     class="fil15 str3"
     style="fill:none;stroke:#000000;stroke-width:25" /><line
     id="line6279"
     y2="6773.5"
     x2="22328.959"
     y1="6257.5"
     x1="22346.959"
     class="fil15 str3"
     style="fill:none;stroke:#000000;stroke-width:25" /><line
     id="line6281"
     y2="6768.5"
     x2="22421.959"
     y1="6266.5"
     x1="22425.959"
     class="fil15 str3"
     style="fill:none;stroke:#000000;stroke-width:25" /><line
     id="line6283"
     y2="6755.5"
     x2="22513.959"
     y1="6292.5"
     x1="22518.959"
     class="fil15 str3"
     style="fill:none;stroke:#000000;stroke-width:25" /><line
     id="line6285"
     y2="6759.5"
     x2="22615.959"
     y1="6310.5"
     x1="22619.959"
     class="fil15 str3"
     style="fill:none;stroke:#000000;stroke-width:25" /><line
     id="line6287"
     y2="6782.5"
     x2="22721.959"
     y1="6323.5"
     x1="22725.959"
     class="fil15 str3"
     style="fill:none;stroke:#000000;stroke-width:25" /><line
     id="line6289"
     y2="6755.5"
     x2="22831.959"
     y1="6345.5"
     x1="22835.959"
     class="fil15 str3"
     style="fill:none;stroke:#000000;stroke-width:25" /><line
     id="line6291"
     y2="6733.5"
     x2="22959.959"
     y1="6371.5"
     x1="22959.959"
     class="fil15 str3"
     style="fill:none;stroke:#000000;stroke-width:25" /><line
     id="line6293"
     y2="6759.5"
     x2="23065.959"
     y1="6389.5"
     x1="23073.959"
     class="fil15 str3"
     style="fill:none;stroke:#000000;stroke-width:25" /><line
     id="line6295"
     y2="6764.5"
     x2="23188.959"
     y1="6411.5"
     x1="23188.959"
     class="fil15 str3"
     style="fill:none;stroke:#000000;stroke-width:25" /><line
     id="line6297"
     y2="6733.5"
     x2="23303.959"
     y1="6438.5"
     x1="23303.959"
     class="fil15 str3"
     style="fill:none;stroke:#000000;stroke-width:25" /><line
     id="line6299"
     y2="6764.5"
     x2="23417.959"
     y1="6451.5"
     x1="23417.959"
     class="fil15 str3"
     style="fill:none;stroke:#000000;stroke-width:25" /><line
     id="line6301"
     y2="6751.5"
     x2="23519.959"
     y1="6473.5"
     x1="23519.959"
     class="fil15 str3"
     style="fill:none;stroke:#000000;stroke-width:25" /><line
     id="line6303"
     y2="6751.5"
     x2="23625.959"
     y1="6504.5"
     x1="23625.959"
     class="fil15 str3"
     style="fill:none;stroke:#000000;stroke-width:25" /><line
     id="line6305"
     y2="6764.5"
     x2="23726.959"
     y1="6517.5"
     x1="23726.959"
     class="fil15 str3"
     style="fill:none;stroke:#000000;stroke-width:25" /><ellipse
     id="ellipse6307"
     ry="159"
     rx="247"
     cy="6744.5"
     cx="19026.959"
     class="fil27 str3"
     style="fill:url(#id15);stroke:#000000;stroke-width:25" /></g>
 
<text
   xml:space="preserve"
   style="font-style:normal;font-weight:normal;font-size:1192.96px;line-height:1.25;font-family:sans-serif;letter-spacing:0px;word-spacing:0px;fill:#000000;fill-opacity:1;stroke:none;stroke-width:74.5602"
   x="-117.08282"
   y="6359.7163"
   id="text6921"><tspan
     sodipodi:role="line"
     id="tspan6919"
     x="-117.08282"
     y="6359.7163"
     style="stroke-width:74.5602">Licht</tspan></text>

<text
   xml:space="preserve"
   style="font-style:normal;font-variant:normal;font-weight:bold;font-stretch:normal;font-size:714.728px;line-height:1.25;font-family:serif;-inkscape-font-specification:'serif, Bold';font-variant-ligatures:normal;font-variant-caps:normal;font-variant-numeric:normal;font-feature-settings:normal;text-align:center;letter-spacing:0px;word-spacing:0px;writing-mode:lr-tb;text-anchor:middle;fill:#ff8375;fill-opacity:1;stroke:none;stroke-width:43.2118"
   x="16652.887"
   y="2300.6492"
   id="text7014"><tspan
     sodipodi:role="line"
     id="tspan7012"
     x="16652.887"
     y="2300.6492"
     style="font-style:normal;font-variant:normal;font-weight:bold;font-stretch:normal;font-size:714.728px;font-family:serif;-inkscape-font-specification:'serif, Bold';font-variant-ligatures:normal;font-variant-caps:normal;font-variant-numeric:normal;font-feature-settings:normal;text-align:center;writing-mode:lr-tb;text-anchor:middle;fill:#ff8375;fill-opacity:1;stroke-width:43.2118">Horizontalzelle</tspan></text>

<text
   id="text7018"
   y="1160.2224"
   x="12181.409"
   style="font-style:normal;font-variant:normal;font-weight:bold;font-stretch:normal;font-size:714.728px;line-height:1.25;font-family:serif;-inkscape-font-specification:'serif, Bold';font-variant-ligatures:normal;font-variant-caps:normal;font-variant-numeric:normal;font-feature-settings:normal;text-align:center;letter-spacing:0px;word-spacing:0px;writing-mode:lr-tb;text-anchor:middle;fill:#ff9933;fill-opacity:1;stroke:none;stroke-width:43.2118"
   xml:space="preserve"><tspan
     style="font-style:normal;font-variant:normal;font-weight:bold;font-stretch:normal;font-size:714.728px;font-family:serif;-inkscape-font-specification:'serif, Bold';font-variant-ligatures:normal;font-variant-caps:normal;font-variant-numeric:normal;font-feature-settings:normal;text-align:center;writing-mode:lr-tb;text-anchor:middle;fill:#ff9933;fill-opacity:1;stroke-width:43.2118"
     y="1160.2224"
     x="12181.409"
     id="tspan7016"
     sodipodi:role="line">Amakrinzelle</tspan></text>

<text
   id="text7022"
   y="10525.929"
   x="13768.222"
   style="font-style:normal;font-variant:normal;font-weight:bold;font-stretch:normal;font-size:714.728px;line-height:1.25;font-family:serif;-inkscape-font-specification:'serif, Bold';font-variant-ligatures:normal;font-variant-caps:normal;font-variant-numeric:normal;font-feature-settings:normal;text-align:center;letter-spacing:0px;word-spacing:0px;writing-mode:lr-tb;text-anchor:middle;fill:#a377cf;fill-opacity:1;stroke:none;stroke-width:43.2118"
   xml:space="preserve"><tspan
     style="font-style:normal;font-variant:normal;font-weight:bold;font-stretch:normal;font-size:714.728px;font-family:serif;-inkscape-font-specification:'serif, Bold';font-variant-ligatures:normal;font-variant-caps:normal;font-variant-numeric:normal;font-feature-settings:normal;text-align:center;writing-mode:lr-tb;text-anchor:middle;fill:#a377cf;fill-opacity:1;stroke-width:43.2118"
     y="10525.929"
     x="13768.222"
     id="tspan7020"
     sodipodi:role="line">Bipolar-</tspan><tspan
     style="font-style:normal;font-variant:normal;font-weight:bold;font-stretch:normal;font-size:714.728px;font-family:serif;-inkscape-font-specification:'serif, Bold';font-variant-ligatures:normal;font-variant-caps:normal;font-variant-numeric:normal;font-feature-settings:normal;text-align:center;writing-mode:lr-tb;text-anchor:middle;fill:#a377cf;fill-opacity:1;stroke-width:43.2118"
     y="11419.339"
     x="13768.222"
     sodipodi:role="line"
     id="tspan7024">zellen</tspan></text>

<text
   xml:space="preserve"
   style="font-style:normal;font-variant:normal;font-weight:bold;font-stretch:normal;font-size:714.728px;line-height:1.25;font-family:serif;-inkscape-font-specification:'serif, Bold';font-variant-ligatures:normal;font-variant-caps:normal;font-variant-numeric:normal;font-feature-settings:normal;text-align:center;letter-spacing:0px;word-spacing:0px;writing-mode:lr-tb;text-anchor:middle;fill:#c5d6d0;fill-opacity:1;stroke:#3a5249;stroke-width:2.64583;stroke-miterlimit:4;stroke-dasharray:none;stroke-opacity:1"
   x="21279.746"
   y="2898.5752"
   id="text7030"><tspan
     id="tspan7028"
     sodipodi:role="line"
     x="21279.746"
     y="2898.5752"
     style="font-style:normal;font-variant:normal;font-weight:bold;font-stretch:normal;font-size:714.728px;font-family:serif;-inkscape-font-specification:'serif, Bold';font-variant-ligatures:normal;font-variant-caps:normal;font-variant-numeric:normal;font-feature-settings:normal;text-align:center;writing-mode:lr-tb;text-anchor:middle;fill:#c5d6d0;fill-opacity:1;stroke:#3a5249;stroke-width:2.64583;stroke-miterlimit:4;stroke-dasharray:none;stroke-opacity:1">Stbchen</tspan></text>

<text
   id="text7036"
   y="9561.0684"
   x="18935.771"
   style="font-style:normal;font-variant:normal;font-weight:bold;font-stretch:normal;font-size:808.122px;line-height:1.25;font-family:serif;-inkscape-font-specification:'serif, Bold';font-variant-ligatures:normal;font-variant-caps:normal;font-variant-numeric:normal;font-feature-settings:normal;text-align:start;letter-spacing:0px;word-spacing:0px;writing-mode:lr-tb;text-anchor:start;fill:#000000;fill-opacity:0;stroke:none;stroke-width:50.508"
   xml:space="preserve"><tspan
     style="font-style:normal;font-variant:normal;font-weight:bold;font-stretch:normal;font-size:808.122px;font-family:serif;-inkscape-font-specification:'serif, Bold';font-variant-ligatures:normal;font-variant-caps:normal;font-variant-numeric:normal;font-feature-settings:normal;text-align:start;writing-mode:lr-tb;text-anchor:start;fill:#000000;fill-opacity:0;stroke-width:50.508"
     y="9561.0684"
     x="18935.771"
     sodipodi:role="line"
     id="tspan7034">Zapfen</tspan></text>

<text
   xml:space="preserve"
   style="font-style:normal;font-variant:normal;font-weight:bold;font-stretch:normal;font-size:714.728px;line-height:1.25;font-family:serif;-inkscape-font-specification:'serif, Bold';font-variant-ligatures:normal;font-variant-caps:normal;font-variant-numeric:normal;font-feature-settings:normal;text-align:center;letter-spacing:0px;word-spacing:0px;writing-mode:lr-tb;text-anchor:middle;fill:#fad12a;fill-opacity:1;stroke:none;stroke-width:43.2118"
   x="7379.6113"
   y="1970.5256"
   id="text7052"><tspan
     sodipodi:role="line"
     id="tspan7050"
     x="7379.6113"
     y="1970.5256"
     style="font-style:normal;font-variant:normal;font-weight:bold;font-stretch:normal;font-size:714.728px;font-family:serif;-inkscape-font-specification:'serif, Bold';font-variant-ligatures:normal;font-variant-caps:normal;font-variant-numeric:normal;font-feature-settings:normal;text-align:center;writing-mode:lr-tb;text-anchor:middle;fill:#fad12a;fill-opacity:1;stroke-width:43.2118">Ganglien-</tspan><tspan
     sodipodi:role="line"
     x="7379.6113"
     y="2863.9353"
     style="font-style:normal;font-variant:normal;font-weight:bold;font-stretch:normal;font-size:714.728px;font-family:serif;-inkscape-font-specification:'serif, Bold';font-variant-ligatures:normal;font-variant-caps:normal;font-variant-numeric:normal;font-feature-settings:normal;text-align:center;writing-mode:lr-tb;text-anchor:middle;fill:#fad12a;fill-opacity:1;stroke-width:43.2118"
     id="tspan7054">zellen</tspan></text>

<text
   id="text7070"
   y="10635.161"
   x="20856.062"
   style="font-style:normal;font-variant:normal;font-weight:bold;font-stretch:normal;font-size:714.728px;line-height:1.25;font-family:serif;-inkscape-font-specification:'serif, Bold';font-variant-ligatures:normal;font-variant-caps:normal;font-variant-numeric:normal;font-feature-settings:normal;text-align:center;letter-spacing:0px;word-spacing:0px;writing-mode:lr-tb;text-anchor:middle;fill:#009324;fill-opacity:1;stroke:none;stroke-width:50.508"
   xml:space="preserve"><tspan
     style="font-style:normal;font-variant:normal;font-weight:bold;font-stretch:normal;font-size:714.728px;font-family:serif;-inkscape-font-specification:'serif, Bold';font-variant-ligatures:normal;font-variant-caps:normal;font-variant-numeric:normal;font-feature-settings:normal;text-align:center;writing-mode:lr-tb;text-anchor:middle;fill:#009324;fill-opacity:1;stroke-width:50.508"
     y="10635.161"
     x="20856.062"
     sodipodi:role="line"
     id="tspan7068">Zapfen</tspan></text>

<path
   style="fill:#a76d60;stroke:#ff9933;stroke-width:100;stroke-dasharray:400, 100;stroke-dashoffset:0;stroke-opacity:1"
   d="m 11278.639,1348.2532 6.453,4085.7033"
   id="path1398"
   sodipodi:nodetypes="cc" /><g
   id="g7235"><path
     sodipodi:nodetypes="cssssscsssscssssscc"
     inkscape:connector-curvature="0"
     id="rect7080"
     d="m 4741.7749,4167.2715 c 275.8749,212.2115 1207.4579,304.5193 1823.7,381.9806 965.7423,121.3933 5098.4801,544.1625 5247.3171,462.8759 509.127,-278.0583 435.834,-219.5503 587.18,-208.2221 344.862,25.8128 279.824,142.2925 605.25,252.8144 828.133,281.2521 3232.133,-25.004 3998.42,-83.0452 788.175,-59.6991 3073.841,-318.5896 3073.841,-318.5896 -31.832,68.9687 -782.568,241.5723 -776.599,326.6323 5.968,85.06 572.91,-134.368 665.113,-128.3294 120.568,7.8963 -265.86,200.5886 -300.31,211.2718 -300.658,93.2362 -9.558,107.2263 20.882,111.507 312.62,43.9635 476.085,145.6469 476.085,145.6469 0,0 -2146.992,-107.7056 -2872.527,-114.6039 -851.619,-8.0971 -4193.171,14.5103 -4648.901,78.233 -144.85,20.2538 -189.619,88.996 -458.394,86.2309 -151.299,-1.5565 -265.62,-218.5763 -372.354,-221.8119 -1064.62,-32.2736 -4001.0684,-326.9538 -4873.6331,-314.022 -738.0452,10.9381 -1940.4162,143.2427 -2195.07,291.7907 z"
     style="opacity:0.597;fill:#2ad4ff;fill-opacity:1;stroke:#000000;stroke-width:26.4583;stroke-linecap:round;stroke-miterlimit:4;stroke-dasharray:none;stroke-dashoffset:0;stroke-opacity:1" /><ellipse
     id="ellipse7085"
     ry="185"
     rx="229"
     cy="5091.0684"
     cx="12314.392"
     class="fil10 str2"
     style="fill:url(#linearGradient7087);stroke:#000000;stroke-width:20;fill-opacity:1.0" /></g><path
   id="path5722"
   d="m 4889.9592,7035.5 c 26,-423 73,-348 106,-305 32,44 50,56 56,196 6,140 0,407 -9,914 -9,507 -21,1253 -6,1645 15,392 56,429 384,463 329,34 945,65 1303,25 358,-40 458,-152 602,-221 144,-68 332,-93 511,-81 179,12 349,62 502,143 153,81 288,193 528,270 241,78 587,121 828,118 241,-3 375.9998,-53 495.9998,-143 120,-90 226,-221 291,-323 65,-103 88,-177 112,-208 23,-31 47,-19 38,44 -9,62 -50,174 -112,277 -62,103 -144,196 -211,264 -67,68 -120,112 -132,146 -12,34 18,59 56,87 38,28 85,59 103,93 18,34 6,72 -41,75 -47,3 -129,-28 -161,-22 -32,6 -15,50 12,96 26,47 62,96 62,127 0,31 -35,44 -82,16 -47,-28 -106,-96 -149.9998,-155 -44,-59 -73,-109 -214,-137 -141,-28 -393,-34 -584,-40 -191,-6 -320,-12 -452,37 -132,50 -267,155 -434,221 -167,65 -367,90 -549,72 -182,-19 -346,-81 -467,-162 -120,-81 -197,-180 -279,-239 -82,-59 -170,-78 -478,-99 -308,-22 -836,-47 -1133,-81 -296,-34 -361,-78 -405,-124 -44,-47 -68,-96 -85,-218 -18,-121 -29,-314 -32,-870 -3,-556 3,-1477 29,-1899 z"
   class="fil4 str2"
   inkscape:connector-curvature="0"
   style="fill:url(#id5);stroke:#000000;stroke-width:20" /><ellipse
   id="ellipse5734"
   ry="291"
   rx="353"
   cy="10267.5"
   cx="7787.959"
   class="fil8 str2"
   style="fill:url(#linearGradient7076);stroke:#000000;stroke-width:20" /><text
   id="text7247"
   y="3149.4951"
   x="12833.08"
   style="font-style:normal;font-variant:normal;font-weight:bold;font-stretch:normal;font-size:714.728px;line-height:1.25;font-family:serif;-inkscape-font-specification:'serif, Bold';font-variant-ligatures:normal;font-variant-caps:normal;font-variant-numeric:normal;font-feature-settings:normal;text-align:center;letter-spacing:0px;word-spacing:0px;writing-mode:lr-tb;text-anchor:middle;fill:#2fc3e9;fill-opacity:1;stroke:none;stroke-width:43.2118"
   xml:space="preserve"><tspan
     style="font-style:normal;font-variant:normal;font-weight:bold;font-stretch:normal;font-size:714.728px;font-family:serif;-inkscape-font-specification:'serif, Bold';font-variant-ligatures:normal;font-variant-caps:normal;font-variant-numeric:normal;font-feature-settings:normal;text-align:center;writing-mode:lr-tb;text-anchor:middle;fill:#2fc3e9;fill-opacity:1;stroke-width:43.2118"
     y="3149.4951"
     x="12833.08"
     id="tspan7245"
     sodipodi:role="line">Mller</tspan><tspan
     style="font-style:normal;font-variant:normal;font-weight:bold;font-stretch:normal;font-size:714.728px;font-family:serif;-inkscape-font-specification:'serif, Bold';font-variant-ligatures:normal;font-variant-caps:normal;font-variant-numeric:normal;font-feature-settings:normal;text-align:center;writing-mode:lr-tb;text-anchor:middle;fill:#2fc3e9;fill-opacity:1;stroke-width:43.2118"
     y="4042.9048"
     x="12833.08"
     sodipodi:role="line"
     id="tspan7249">zellen</tspan></text>

<g
   id="g668"
   transform="translate(0,2222.5001)"><path
     id="path582"
     d="m 19623.959,6549.5 c -68,-29 -150,-71 -254,-106 -104,-35 -231,-65 -351,-69 -121,-4 -235,16 -335,63 -100,47 -285.02,158.0923 -344.02,202.0923 -59,44 9.02,21.9077 -250.98,34.9077 -260,13 -748,25 -1025,25 -276,0 -341,-12 -398,-47 -57,-35 -107,-94 -143,-151 -35,-57 -56,-113 -79,-151 -24,-38 -93.699,-26.0256 -116.699,-17.0256 -24,9 -6.301,79.0256 -7.301,91.0256 -1,12 28,35 54,60 26,25 50,51 78,90 28,38 60,88 74,121 13,32 7,47 -18,50 -25,3 -69,-6 -109,-13 -40,-7 -75,-13 -97,-4 -22,9 -31,32 -12,47 19,15 66,21 107,25 41,4 76,7 82,35 6,28 -18,81 -40,128 -22,47 -43,88 -35,115 7,26 43,38 65,25 22,-13 31,-51 54,-79 24,-28 62,-46 106,-69 44,-24 94,-53 392,-71 298,-18 845,-24 1130,-13 285,10 538,128 648,156 110,28 228,51 331,46 103,-6 191,-41 268,-88 76,-47 141,-106 204,-147 63,-41 125,-65 191,-69 66,-4 137,10 194,50 57,40 101,104 143,143 41,38 79,50 222,53 143,3 390,-3 697,-16 307,-13 675,-34 904,-51 229,-18 320,-32 717,-51 397,-19 1100,-43 1476,-65 376,-22 49.084,-33.3899 61.084,-58.3899 12,-25 361.916,-63.6101 -29.084,-153.6101 -391,-90 -1147,-240 -1545,-315 -398,-75 -440,-75 -822,-70 -382,5 -1105,15 -1461,70 -356,54 -344,153 -375,212 -31,60 -104,80 -168,82 -63,1 -116,-16 -184,-46 z"
     class="fil26 str2"
     inkscape:connector-curvature="0"
     style="fill:url(#linearGradient670);stroke:#000000;stroke-width:20"
     sodipodi:nodetypes="cscssssscccssccssssssscsccscsccssscsscssssssccccc" /><line
     id="line584"
     y2="6852.5"
     x2="20472.959"
     y1="6288.5"
     x1="20445.959"
     class="fil15 str3"
     style="fill:none;stroke:#000000;stroke-width:25" /><line
     id="line586"
     y2="6856.5"
     x2="20397.959"
     y1="6296.5"
     x1="20375.959"
     class="fil15 str3"
     style="fill:none;stroke:#000000;stroke-width:25" /><line
     id="line588"
     y2="6865.5"
     x2="20326.959"
     y1="6310.5"
     x1="20282.959"
     class="fil15 str3"
     style="fill:none;stroke:#000000;stroke-width:25" /><line
     id="line590"
     y2="6843.5"
     x2="20564.959"
     y1="6279.5"
     x1="20551.959"
     class="fil15 str3"
     style="fill:none;stroke:#000000;stroke-width:25" /><line
     id="line592"
     y2="6839.5"
     x2="20657.959"
     y1="6257.5"
     x1="20661.959"
     class="fil15 str3"
     style="fill:none;stroke:#000000;stroke-width:25" /><line
     id="line594"
     y2="6839.5"
     x2="20714.959"
     y1="6261.5"
     x1="20723.959"
     class="fil15 str3"
     style="fill:none;stroke:#000000;stroke-width:25" /><line
     id="line596"
     y2="6826.5"
     x2="20794.959"
     y1="6257.5"
     x1="20811.959"
     class="fil15 str3"
     style="fill:none;stroke:#000000;stroke-width:25" /><line
     id="line598"
     y2="6826.5"
     x2="20864.959"
     y1="6257.5"
     x1="20881.959"
     class="fil15 str3"
     style="fill:none;stroke:#000000;stroke-width:25" /><line
     id="line600"
     y2="6826.5"
     x2="20944.959"
     y1="6257.5"
     x1="20961.959"
     class="fil15 str3"
     style="fill:none;stroke:#000000;stroke-width:25" /><line
     id="line602"
     y2="6826.5"
     x2="21014.959"
     y1="6257.5"
     x1="21031.959"
     class="fil15 str3"
     style="fill:none;stroke:#000000;stroke-width:25" /><line
     id="line604"
     y2="6826.5"
     x2="21084.959"
     y1="6257.5"
     x1="21101.959"
     class="fil15 str3"
     style="fill:none;stroke:#000000;stroke-width:25" /><line
     id="line606"
     y2="6826.5"
     x2="21154.959"
     y1="6257.5"
     x1="21171.959"
     class="fil15 str3"
     style="fill:none;stroke:#000000;stroke-width:25" /><line
     id="line608"
     y2="6816.5"
     x2="21224.959"
     y1="6247.5"
     x1="21241.959"
     class="fil15 str3"
     style="fill:none;stroke:#000000;stroke-width:25" /><line
     id="line610"
     y2="6806.5"
     x2="21304.959"
     y1="6237.5"
     x1="21321.959"
     class="fil15 str3"
     style="fill:none;stroke:#000000;stroke-width:25" /><line
     id="line612"
     y2="6806.5"
     x2="21384.959"
     y1="6237.5"
     x1="21401.959"
     class="fil15 str3"
     style="fill:none;stroke:#000000;stroke-width:25" /><line
     id="line614"
     y2="6806.5"
     x2="21454.959"
     y1="6237.5"
     x1="21471.959"
     class="fil15 str3"
     style="fill:none;stroke:#000000;stroke-width:25" /><line
     id="line616"
     y2="6795.5"
     x2="21530.959"
     y1="6244.5"
     x1="21539.959"
     class="fil15 str3"
     style="fill:none;stroke:#000000;stroke-width:25" /><line
     id="line618"
     y2="6812.5"
     x2="21609.959"
     y1="6235.5"
     x1="21618.959"
     class="fil15 str3"
     style="fill:none;stroke:#000000;stroke-width:25" /><line
     id="line620"
     y2="6812.5"
     x2="21693.959"
     y1="6235.5"
     x1="21702.959"
     class="fil15 str3"
     style="fill:none;stroke:#000000;stroke-width:25" /><line
     id="line622"
     y2="6782.5"
     x2="21777.959"
     y1="6235.5"
     x1="21777.959"
     class="fil15 str3"
     style="fill:none;stroke:#000000;stroke-width:25" /><line
     id="line624"
     y2="6777.5"
     x2="21847.959"
     y1="6239.5"
     x1="21856.959"
     class="fil15 str3"
     style="fill:none;stroke:#000000;stroke-width:25" /><line
     id="line626"
     y2="6786.5"
     x2="21927.959"
     y1="6239.5"
     x1="21931.959"
     class="fil15 str3"
     style="fill:none;stroke:#000000;stroke-width:25" /><line
     id="line628"
     y2="6737.5"
     x2="23801.959"
     y1="6535.5"
     x1="23805.959"
     class="fil15 str3"
     style="fill:none;stroke:#000000;stroke-width:25" /><line
     id="line630"
     y2="6790.5"
     x2="22002.959"
     y1="6239.5"
     x1="22006.959"
     class="fil15 str3"
     style="fill:none;stroke:#000000;stroke-width:25" /><line
     id="line632"
     y2="6804.5"
     x2="22094.959"
     y1="6239.5"
     x1="22099.959"
     class="fil15 str3"
     style="fill:none;stroke:#000000;stroke-width:25" /><line
     id="line634"
     y2="6768.5"
     x2="22169.959"
     y1="6235.5"
     x1="22178.959"
     class="fil15 str3"
     style="fill:none;stroke:#000000;stroke-width:25" /><line
     id="line636"
     y2="6773.5"
     x2="22240.959"
     y1="6244.5"
     x1="22253.959"
     class="fil15 str3"
     style="fill:none;stroke:#000000;stroke-width:25" /><line
     id="line638"
     y2="6773.5"
     x2="22328.959"
     y1="6257.5"
     x1="22346.959"
     class="fil15 str3"
     style="fill:none;stroke:#000000;stroke-width:25" /><line
     id="line640"
     y2="6768.5"
     x2="22421.959"
     y1="6266.5"
     x1="22425.959"
     class="fil15 str3"
     style="fill:none;stroke:#000000;stroke-width:25" /><line
     id="line642"
     y2="6755.5"
     x2="22513.959"
     y1="6292.5"
     x1="22518.959"
     class="fil15 str3"
     style="fill:none;stroke:#000000;stroke-width:25" /><line
     id="line644"
     y2="6759.5"
     x2="22615.959"
     y1="6310.5"
     x1="22619.959"
     class="fil15 str3"
     style="fill:none;stroke:#000000;stroke-width:25" /><line
     id="line646"
     y2="6782.5"
     x2="22721.959"
     y1="6323.5"
     x1="22725.959"
     class="fil15 str3"
     style="fill:none;stroke:#000000;stroke-width:25" /><line
     id="line648"
     y2="6755.5"
     x2="22831.959"
     y1="6345.5"
     x1="22835.959"
     class="fil15 str3"
     style="fill:none;stroke:#000000;stroke-width:25" /><line
     id="line650"
     y2="6733.5"
     x2="22959.959"
     y1="6371.5"
     x1="22959.959"
     class="fil15 str3"
     style="fill:none;stroke:#000000;stroke-width:25" /><line
     id="line652"
     y2="6759.5"
     x2="23065.959"
     y1="6389.5"
     x1="23073.959"
     class="fil15 str3"
     style="fill:none;stroke:#000000;stroke-width:25" /><line
     id="line654"
     y2="6764.5"
     x2="23188.959"
     y1="6411.5"
     x1="23188.959"
     class="fil15 str3"
     style="fill:none;stroke:#000000;stroke-width:25" /><line
     id="line656"
     y2="6733.5"
     x2="23303.959"
     y1="6438.5"
     x1="23303.959"
     class="fil15 str3"
     style="fill:none;stroke:#000000;stroke-width:25" /><line
     id="line658"
     y2="6764.5"
     x2="23417.959"
     y1="6451.5"
     x1="23417.959"
     class="fil15 str3"
     style="fill:none;stroke:#000000;stroke-width:25" /><line
     id="line660"
     y2="6751.5"
     x2="23519.959"
     y1="6473.5"
     x1="23519.959"
     class="fil15 str3"
     style="fill:none;stroke:#000000;stroke-width:25" /><line
     id="line662"
     y2="6751.5"
     x2="23625.959"
     y1="6504.5"
     x1="23625.959"
     class="fil15 str3"
     style="fill:none;stroke:#000000;stroke-width:25" /><line
     id="line664"
     y2="6764.5"
     x2="23726.959"
     y1="6517.5"
     x1="23726.959"
     class="fil15 str3"
     style="fill:none;stroke:#000000;stroke-width:25" /><ellipse
     id="ellipse666"
     ry="159"
     rx="247"
     cy="6744.5"
     cx="19026.959"
     class="fil27 str3"
     style="fill:url(#linearGradient672);stroke:#000000;stroke-width:25" /></g><text
   xml:space="preserve"
   style="font-size:493.89px;font-family:sans-serif;-inkscape-font-specification:sans-serif;text-align:center;text-anchor:middle;fill:#a76d60;stroke-width:100"
   x="9649.0098"
   y="11864.388"
   id="text780"><tspan
     sodipodi:role="line"
     id="tspan778"
     style="stroke-width:100"
     x="9649.0098"
     y="11864.388">-</tspan></text><path
   style="fill:#a76d60;stroke:#a377cf;stroke-width:100;stroke-dasharray:400, 100;stroke-dashoffset:0;stroke-opacity:1"
   d="m 13765.287,8733.9723 -3.762,1233.2609"
   id="path836"
   sodipodi:nodetypes="cc" /><path
   style="fill:#2fc3e9;stroke:#2fc3e9;stroke-width:100;stroke-opacity:1;stroke-dasharray:399.99999989, 99.99999991;stroke-dashoffset:0;fill-opacity:1"
   d="m 12424.704,4166.9862 0.246,509.7094"
   id="path1400"
   sodipodi:nodetypes="cc" /><path
   style="fill:#a76d60;stroke:#ff8375;stroke-width:100;stroke-opacity:1;stroke-dasharray:399.99999989, 99.99999991;stroke-dashoffset:0"
   d="m 14274.744,2399.2256 -2.317,1634.5539"
   id="path1402"
   sodipodi:nodetypes="cc" /><path
   style="fill:#c5d6d0;stroke:#c5d6d0;stroke-width:100;stroke-dasharray:400, 100;stroke-dashoffset:0;stroke-opacity:1;fill-opacity:1"
   d="m 22148.174,3050.2812 -2.215,772.8059"
   id="path1404"
   sodipodi:nodetypes="cc" /><path
   style="fill:#a76d60;stroke:#009324;stroke-width:100;stroke-opacity:1;stroke-dasharray:399.99999989, 99.99999991;stroke-dashoffset:0"
   d="m 20863.071,9354.6882 -6.439,786.6998"
   id="path1406"
   sodipodi:nodetypes="cc" /><text
   id="text2140"
   y="1112.8732"
   x="22210.715"
   style="font-style:normal;font-variant:normal;font-weight:bold;font-stretch:normal;font-size:714.728px;line-height:1.25;font-family:serif;-inkscape-font-specification:'serif, Bold';font-variant-ligatures:normal;font-variant-caps:normal;font-variant-numeric:normal;font-feature-settings:normal;text-align:center;letter-spacing:0px;word-spacing:0px;writing-mode:lr-tb;text-anchor:middle;fill:#8c8c8c;fill-opacity:1;stroke:none;stroke-width:50.508"
   xml:space="preserve"><tspan
     style="font-style:normal;font-variant:normal;font-weight:bold;font-stretch:normal;font-size:714.728px;font-family:serif;-inkscape-font-specification:'serif, Bold';font-variant-ligatures:normal;font-variant-caps:normal;font-variant-numeric:normal;font-feature-settings:normal;text-align:center;writing-mode:lr-tb;text-anchor:middle;fill:#8c8c8c;fill-opacity:1;stroke-width:50.508"
     y="1112.8732"
     x="22210.715"
     sodipodi:role="line"
     id="tspan2138">Pigmentepithel</tspan></text><path
   style="fill:#a76d60;stroke:#8c8c8c;stroke-width:99.99999964;stroke-dasharray:399.99999857, 99.99999964;stroke-dashoffset:0;stroke-opacity:1"
   d="m 24507.811,1276.7215 6.459,3915.7905"
   id="path2244"
   sodipodi:nodetypes="cc" /></svg>
